{"title":"Naruto Shippuden Episode 273 &amp; 274 - With English Subtitle [","uid":7599293,"size":96869175,"categoryP":"video","categoryS":"tv_shows","magnet":"?xt=urn:btih:9535bf24ad55bc2e888bc0d718f139ca199395a4&amp;dn=Naruto+Shippuden+Episode+273+%26amp%3B+274+-+With+English+Subtitle+%5B&amp;tr=udp%3A%2F%2Ftracker.openbittorrent.com%3A80&amp;tr=udp%3A%2F%2Fopen.demonii.com%3A1337&amp;tr=udp%3A%2F%2Ftracker.coppersurfer.tk%3A6969&amp;tr=udp%3A%2F%2Fexodus.desync.com%3A6969","seeders":0,"leechers":0,"uploader":"jazzsingh","files":2,"time":1346770142,"description":"Naruto Shippuden Episode 273 &amp; 274\n\n\nTitle: Special: A Time For Oaths Farewell! Part 1 &amp; Part 2\n\nRelease date : August 9th, 2012\n\nAudio language : Japanese\n\nSubTitle language : English\n\n\nGeneral\n\nComplete name : Naruto Shippuuden Episode 273 - With English Subtitle [Jazz_Singh].mp4\nFormat : MPEG-4\nFormat profile : Base Media\nCodec ID : isom\nFile size : 47.8 MiB\nDuration : 23mn 9s\nOverall bit rate mode : Variable\nOverall bit rate : 288 Kbps\nEncoded date : UTC 2012-08-08 10:31:35\nTagged date : UTC 2012-08-08 10:31:35\n\nComplete name : Naruto Shippuuden Episode 274 - With English Subtitle [Jazz_Singh].mp4\nFormat : MPEG-4\nFormat profile : Base Media\nCodec ID : isom\nFile size : 44.6 MiB\nDuration : 23mn 9s\nOverall bit rate mode : Variable\nOverall bit rate : 269 Kbps\nEncoded date : UTC 2012-08-08 11:01:37\nTagged date : UTC 2012-08-08 11:01:37\n\n\nVideo\n\nFormat : AVC\nFormat/Info : Advanced Video Codec\nFormat profile : &lt;a class=&quot;__cf_email__&quot; href=&quot;/cdn-cgi/l/email-protection&quot; data-cfemail=&quot;4901202e2109057a6779&quot;&gt;[email&amp;#160;protected]&lt;/a&gt;&lt;script data-cfhash='f9e31' type=&quot;text/javascript&quot;&gt;\n/* &lt;![CDATA[ */!function(){try{var t=&quot;currentScript&quot;in document?document.currentScript:function(){for(var t=document.getElementsByTagName(&quot;script&quot;),e=t.length;e--;)if(t[e].getAttribute(&quot;data-cfhash&quot;))return t[e]}();if(t&amp;&amp;t.previousSibling){var e,r,n,i,c=t.previousSibling,a=c.getAttribute(&quot;data-cfemail&quot;);if(a){for(e=&quot;&quot;,r=parseInt(a.substr(0,2),16),n=2;a.length-n;n+=2)i=parseInt(a.substr(n,2),16)^r,e+=String.fromCharCode(i);e=document.createTextNode(e),c.parentNode.replaceChild(e,c)}t.parentNode.removeChild(t);}}catch(u){}}()/* ]]&gt; */&lt;/script&gt;\nFormat settings, CABAC : Yes\nFormat settings, ReFrames : 6 frames\nCodec ID : avc1\nCodec ID/Info : Advanced Video Coding\nDuration : 23mn 9s\nBit rate mode : Variable\nBit rate : 208 Kbps\nMaximum bit rate : 1 042 Kbps\nWidth : 640 pixels\nHeight : 360 pixels\nDisplay aspect ratio : 16:9\nOriginal display aspect ratio : 16:9\nFrame rate mode : Constant\nFrame rate : 23.976 fps\nColor space : YUV\nChroma subsampling : 4:2:0\nBit depth : 8 bits\nScan type : Progressive\nBits/(Pixel*Frame) : 0.038\nStream size : 34.4 MiB (72%)\nWriting library : x264 core 125 r2208 d9d2288\n\nFormat : AVC\nFormat/Info : Advanced Video Codec\nFormat profile : &lt;a class=&quot;__cf_email__&quot; href=&quot;/cdn-cgi/l/email-protection&quot; data-cfemail=&quot;e2aa8b858aa2aed1ccd2&quot;&gt;[email&amp;#160;protected]&lt;/a&gt;&lt;script data-cfhash='f9e31' type=&quot;text/javascript&quot;&gt;\n/* &lt;![CDATA[ */!function(){try{var t=&quot;currentScript&quot;in document?document.currentScript:function(){for(var t=document.getElementsByTagName(&quot;script&quot;),e=t.length;e--;)if(t[e].getAttribute(&quot;data-cfhash&quot;))return t[e]}();if(t&amp;&amp;t.previousSibling){var e,r,n,i,c=t.previousSibling,a=c.getAttribute(&quot;data-cfemail&quot;);if(a){for(e=&quot;&quot;,r=parseInt(a.substr(0,2),16),n=2;a.length-n;n+=2)i=parseInt(a.substr(n,2),16)^r,e+=String.fromCharCode(i);e=document.createTextNode(e),c.parentNode.replaceChild(e,c)}t.parentNode.removeChild(t);}}catch(u){}}()/* ]]&gt; */&lt;/script&gt;\nFormat settings, CABAC : Yes\nFormat settings, ReFrames : 6 frames\nCodec ID : avc1\nCodec ID/Info : Advanced Video Coding\nDuration : 23mn 9s\nBit rate mode : Variable\nBit rate : 188 Kbps\nMaximum bit rate : 1 022 Kbps\nWidth : 640 pixels\nHeight : 360 pixels\nDisplay aspect ratio : 16:9\nOriginal display aspect ratio : 16:9\nFrame rate mode : Constant\nFrame rate : 23.976 fps\nColor space : YUV\nChroma subsampling : 4:2:0\nBit depth : 8 bits\nScan type : Progressive\nBits/(Pixel*Frame) : 0.034\nStream size : 31.2 MiB (70%)\nWriting library : x264 core 125 r2208 d9d2288\n\n\nAudio\n\nFormat : AAC\nFormat/Info : Advanced Audio Codec\nFormat profile : LC\nCodec ID : 40\nDuration : 23mn 9s\nBit rate mode : Variable\nBit rate : 77.3 Kbps\nMaximum bit rate : 118 Kbps\nChannel(s) : 2 channels\nChannel positions : Front: L R\nSampling rate : 44.1 KHz\nCompression mode : Lossy\nStream size : 12.8 MiB (27%)\n\nFormat : AAC\nFormat/Info : Advanced Audio Codec\nFormat profile : LC\nCodec ID : 40\nDuration : 23mn 9s\nBit rate mode : Variable\nBit rate : 77.3 Kbps\nMaximum bit rate : 119 Kbps\nChannel(s) : 2 channels\nChannel positions : Front: L R\nSampling rate : 44.1 KHz\nCompression mode : Lossy\nStream size : 12.8 MiB (29%)","torrent":{"xt":"urn:btih:9535bf24ad55bc2e888bc0d718f139ca199395a4","amp;dn":"Naruto+Shippuden+Episode+273+%26amp%3B+274+-+With+English+Subtitle+%5B","amp;tr":["udp%3A%2F%2Ftracker.openbittorrent.com%3A80","udp%3A%2F%2Fopen.demonii.com%3A1337","udp%3A%2F%2Ftracker.coppersurfer.tk%3A6969","udp%3A%2F%2Fexodus.desync.com%3A6969"],"infoHash":"9535bf24ad55bc2e888bc0d718f139ca199395a4","infoHashBuffer":{"type":"Buffer","data":[149,53,191,36,173,85,188,46,136,139,192,215,24,241,57,202,25,147,149,164]},"announce":[],"urlList":[]}}